<?xml version="1.0" standalone="no"?>
<!DOCTYPE svg PUBLIC "-//W3C//DTD SVG 20010904//EN"
 "http://www.w3.org/TR/2001/REC-SVG-20010904/DTD/svg10.dtd">
<svg version="1.0" xmlns="http://www.w3.org/2000/svg"
 width="414.000000pt" height="356.000000pt" viewBox="0 0 414.000000 356.000000"
 preserveAspectRatio="xMidYMid meet">

<g transform="translate(0.000000,356.000000) scale(0.100000,-0.100000)"
fill="#000000" stroke="none">
<path d="M1983 3258 c-30 -38 -63 -222 -63 -353 l0 -59 -61 -59 c-64 -60 -82
-66 -87 -28 -2 14 -9 21 -20 19 -13 -2 -18 -16 -20 -58 -4 -55 -5 -56 -77
-117 -40 -35 -75 -63 -78 -63 -3 0 -7 15 -9 33 -2 20 -8 32 -18 32 -11 0 -16
-14 -18 -57 l-3 -56 -74 -67 c-53 -47 -75 -74 -75 -90 l0 -23 48 23 c26 12 70
32 97 45 28 12 77 35 110 50 149 71 236 110 259 116 28 7 22 38 52 -311 l16
-190 -94 -87 c-51 -47 -90 -90 -86 -94 5 -4 50 0 100 9 87 16 94 16 106 0 16
-23 15 -41 -7 -88 -58 -125 -182 -215 -371 -266 -71 -20 -264 -17 -335 5 -150
45 -274 134 -336 241 l-29 50 0 -41 c0 -55 34 -163 76 -244 98 -187 371 -350
694 -412 77 -15 157 -22 300 -24 173 -4 209 -1 325 20 72 14 161 34 199 46
164 51 339 153 428 248 91 98 167 273 168 386 0 27 -2 25 -26 -20 -55 -105
-166 -191 -309 -240 -70 -24 -96 -27 -205 -28 -104 -1 -137 3 -200 22 -145 45
-253 123 -315 226 -37 64 -43 92 -22 120 12 16 17 16 105 -2 58 -11 95 -15 99
-9 6 10 -49 66 -136 140 l-45 37 12 133 c29 325 33 372 38 376 5 6 114 -41
337 -146 97 -45 182 -83 187 -83 29 0 2 44 -65 104 l-74 67 -3 57 c-2 43 -7
57 -18 57 -10 0 -16 -12 -18 -32 -2 -18 -6 -33 -10 -33 -8 0 -48 34 -114 96
-45 42 -48 49 -48 95 0 36 -4 49 -14 49 -8 0 -16 -10 -18 -22 -5 -37 -24 -31
-86 29 l-60 58 -5 110 c-11 216 -60 358 -104 303z"/>
<path d="M678 864 c-2 -5 -3 -27 -2 -49 0 -22 2 -68 3 -103 1 -46 4 -62 14
-59 6 2 12 13 12 25 1 29 8 34 57 39 64 6 88 26 88 72 0 54 -26 74 -104 79
-35 2 -65 0 -68 -4z m138 -45 c17 -19 17 -23 3 -47 -13 -24 -21 -27 -63 -27
l-49 0 1 43 c0 23 1 44 1 47 1 3 21 5 44 5 32 0 49 -6 63 -21z"/>
<path d="M898 863 c-2 -5 -4 -53 -4 -107 1 -70 5 -100 14 -103 9 -4 12 22 12
106 0 63 -4 111 -9 111 -6 0 -11 -3 -13 -7z"/>
<path d="M987 863 c-4 -3 -7 -53 -7 -110 l0 -103 75 0 c43 0 75 4 75 10 0 6
-27 10 -60 10 l-60 0 0 100 c0 92 -5 112 -23 93z"/>
<path d="M1198 855 c-34 -19 -58 -63 -58 -106 0 -22 10 -41 34 -65 30 -30 40
-34 86 -34 44 0 56 4 81 29 43 43 43 110 -1 155 -34 35 -100 45 -142 21z m102
-20 c35 -18 55 -71 41 -108 -34 -88 -170 -65 -171 28 0 36 23 73 54 85 31 13
44 12 76 -5z"/>
<path d="M1387 864 c-13 -13 5 -24 39 -24 l34 0 0 -95 c0 -78 3 -95 15 -95 12
0 15 17 15 95 0 87 2 95 19 95 26 0 51 10 51 21 0 10 -163 13 -173 3z"/>
<path d="M1676 863 c-3 -3 -6 -53 -6 -110 l0 -103 75 0 c43 0 75 4 75 10 0 6
-27 10 -60 10 l-60 0 0 94 c0 87 -7 116 -24 99z"/>
<path d="M1894 860 c-63 -25 -86 -124 -41 -176 19 -22 34 -28 80 -32 54 -4 58
-3 92 31 37 37 44 71 25 121 -19 51 -99 79 -156 56z m107 -39 c81 -81 -24
-202 -114 -131 -66 52 -26 158 61 160 13 0 37 -13 53 -29z"/>
<path d="M2154 860 c-36 -14 -64 -59 -64 -102 0 -50 13 -74 50 -93 30 -16 107
-20 127 -7 14 9 21 85 8 92 -5 3 -11 -11 -13 -30 -2 -19 -9 -38 -15 -42 -23
-14 -74 -8 -100 12 -78 61 -6 185 87 152 39 -14 46 -15 46 -4 0 25 -83 39
-126 22z"/>
<path d="M2417 863 c-4 -3 -7 -53 -7 -110 l0 -103 73 0 c80 0 117 16 117 52 0
12 -7 30 -17 40 -14 15 -14 22 -4 42 29 54 -8 86 -100 86 -31 0 -59 -3 -62 -7z
m124 -23 c22 -13 25 -43 5 -59 -8 -7 -34 -11 -58 -9 -36 3 -44 7 -46 26 -6 39
5 52 43 52 20 0 45 -5 56 -10z m17 -102 c17 -17 15 -55 -4 -62 -9 -3 -38 -6
-65 -6 -49 0 -49 0 -49 33 0 19 3 37 7 40 11 12 98 8 111 -5z"/>
<path d="M2683 851 c-38 -24 -53 -49 -53 -90 0 -66 46 -111 115 -111 74 0 115
41 115 115 0 81 -104 132 -177 86z m106 -16 c79 -40 46 -165 -44 -165 -39 0
-65 18 -81 56 -13 31 -13 39 1 68 25 53 72 68 124 41z"/>
<path d="M2942 851 c-96 -61 -53 -201 63 -201 71 0 114 41 115 107 0 90 -100
142 -178 94z m107 -16 c33 -17 41 -33 41 -85 0 -47 -35 -80 -87 -80 -80 0
-114 102 -52 154 35 30 58 32 98 11z"/>
<path d="M3168 864 c-10 -9 1 -209 12 -212 5 -2 10 7 10 20 0 27 26 68 43 68
7 0 30 -21 53 -46 22 -26 46 -45 53 -43 8 3 4 14 -14 34 -14 17 -35 42 -46 57
l-20 27 42 46 c62 67 38 68 -29 2 -32 -31 -63 -57 -70 -57 -8 0 -12 18 -12 55
0 50 -7 65 -22 49z"/>
</g>
</svg>
